<svg xmlns="http://www.w3.org/2000/svg" width="681" height="792" viewBox="300 251 681 792"><defs><clipPath id="silhouette"><path d="M 549 251.664 C 547.075 251.853, 538.300 252.708, 529.500 253.564 C 500.344 256.402, 477.337 262.453, 455.500 273.027 C 392.874 303.352, 347.914 364.665, 334.895 437.500 C 332.201 452.572, 332.047 463.260, 331.733 655.803 L 331.500 799.105 318.808 811.303 C 304.014 825.520, 301.174 830.281, 300.341 842.260 C 299.192 858.782, 309.304 873.217, 325.750 878.533 L 331 880.230 331.039 909.365 C 331.097 952.306, 332.426 979.768, 334.907 989.287 C 341.562 1014.815, 360.616 1033.684, 386.201 1040.082 C 396.778 1042.727, 433.781 1043.891, 450.762 1042.113 C 493.897 1037.597, 524.765 1012.544, 537.149 972 C 539.425 964.547, 539.443 964.038, 539.970 890.500 L 540.500 816.500 556.500 815.853 C 619.352 813.309, 668.446 793.601, 703.500 756.841 C 708.450 751.651, 714.075 745.318, 716 742.770 L 719.500 738.136 805.500 737.785 L 891.500 737.435 901.304 734.762 C 935.002 725.572, 960.444 700.456, 969.588 667.354 C 972.126 658.169, 972.615 636.352, 970.515 626.063 C 962.722 587.897, 932.012 558.244, 893.281 551.490 C 886.232 550.261, 871.808 550, 810.804 550 L 736.871 550 732.942 541.750 C 706.393 485.999, 650.961 446.523, 588.436 438.839 C 583.207 438.196, 579.296 437.304, 579.744 436.856 C 580.192 436.408, 653.446 435.915, 742.529 435.761 L 904.500 435.481 911.527 433.299 C 948.242 421.898, 973.268 394.113, 979.624 357.695 C 986.899 316.009, 961.708 272.770, 921 257.069 C 904.357 250.650, 915.421 250.984, 725.292 251.160 C 630.256 251.248, 550.925 251.475, 549 251.664 Z" stroke="none" fill="#0048af" fill-rule="evenodd"/></clipPath></defs><path d="M 549 251.664 C 547.075 251.853, 538.300 252.708, 529.500 253.564 C 500.344 256.402, 477.337 262.453, 455.500 273.027 C 392.874 303.352, 347.914 364.665, 334.895 437.500 C 332.201 452.572, 332.047 463.260, 331.733 655.803 L 331.500 799.105 318.808 811.303 C 304.014 825.520, 301.174 830.281, 300.341 842.260 C 299.192 858.782, 309.304 873.217, 325.750 878.533 L 331 880.230 331.039 909.365 C 331.097 952.306, 332.426 979.768, 334.907 989.287 C 341.562 1014.815, 360.616 1033.684, 386.201 1040.082 C 396.778 1042.727, 433.781 1043.891, 450.762 1042.113 C 493.897 1037.597, 524.765 1012.544, 537.149 972 C 539.425 964.547, 539.443 964.038, 539.970 890.500 L 540.500 816.500 556.500 815.853 C 619.352 813.309, 668.446 793.601, 703.500 756.841 C 708.450 751.651, 714.075 745.318, 716 742.770 L 719.500 738.136 805.500 737.785 L 891.500 737.435 901.304 734.762 C 935.002 725.572, 960.444 700.456, 969.588 667.354 C 972.126 658.169, 972.615 636.352, 970.515 626.063 C 962.722 587.897, 932.012 558.244, 893.281 551.490 C 886.232 550.261, 871.808 550, 810.804 550 L 736.871 550 732.942 541.750 C 706.393 485.999, 650.961 446.523, 588.436 438.839 C 583.207 438.196, 579.296 437.304, 579.744 436.856 C 580.192 436.408, 653.446 435.915, 742.529 435.761 L 904.500 435.481 911.527 433.299 C 948.242 421.898, 973.268 394.113, 979.624 357.695 C 986.899 316.009, 961.708 272.770, 921 257.069 C 904.357 250.650, 915.421 250.984, 725.292 251.160 C 630.256 251.248, 550.925 251.475, 549 251.664 Z" stroke="none" fill="#0048af" fill-rule="evenodd"/><g clip-path="url(#silhouette)"><path d="M 549 251.656 C 547.075 251.841, 542.667 252.257, 539.204 252.581 L 532.909 253.169 533.086 316.334 C 533.184 351.076, 533.488 392.560, 533.762 408.521 L 534.261 437.543 556.655 437.231 C 568.971 437.059, 579.600 436.715, 580.274 436.465 C 580.948 436.216, 654.175 435.892, 743 435.746 L 904.500 435.480 911.527 433.299 C 948.242 421.898, 973.268 394.113, 979.624 357.695 C 986.899 316.009, 961.708 272.770, 921 257.069 C 904.357 250.650, 915.421 250.984, 725.292 251.160 C 630.256 251.248, 550.925 251.471, 549 251.656 Z M 555.333 466.667 C 555.700 467.033, 556.300 467.033, 556.667 466.667 C 557.033 466.300, 556.733 466, 556 466 C 555.267 466, 554.967 466.300, 555.333 466.667 Z M 576.333 466.667 C 576.700 467.033, 577.300 467.033, 577.667 466.667 C 578.033 466.300, 577.733 466, 577 466 C 576.267 466, 575.967 466.300, 576.333 466.667 Z M 546 467.500 C 546 467.775, 546.225 468, 546.500 468 C 546.775 468, 547 467.775, 547 467.500 C 547 467.225, 546.775 467, 546.500 467 C 546.225 467, 546 467.225, 546 467.500 Z M 586 467.500 C 586 467.775, 586.225 468, 586.500 468 C 586.775 468, 587 467.775, 587 467.500 C 587 467.225, 586.775 467, 586.500 467 C 586.225 467, 586 467.225, 586 467.500 Z M 533 469.500 C 533 469.775, 533.225 470, 533.500 470 C 533.775 470, 534 469.775, 534 469.500 C 534 469.225, 533.775 469, 533.500 469 C 533.225 469, 533 469.225, 533 469.500 Z M 529 470.500 C 529 470.775, 529.225 471, 529.500 471 C 529.775 471, 530 470.775, 530 470.500 C 530 470.225, 529.775 470, 529.500 470 C 529.225 470, 529 470.225, 529 470.500 Z M 606 471.500 C 606 471.775, 606.225 472, 606.500 472 C 606.775 472, 607 471.775, 607 471.500 C 607 471.225, 606.775 471, 606.500 471 C 606.225 471, 606 471.225, 606 471.500 Z M 521 472.500 C 521 472.775, 521.225 473, 521.500 473 C 521.775 473, 522 472.775, 522 472.500 C 522 472.225, 521.775 472, 521.500 472 C 521.225 472, 521 472.225, 521 472.500 Z M 518 473.500 C 518 473.775, 518.225 474, 518.500 474 C 518.775 474, 519 473.775, 519 473.500 C 519 473.225, 518.775 473, 518.500 473 C 518.225 473, 518 473.225, 518 473.500 Z M 506 477.500 C 506 477.775, 506.225 478, 506.500 478 C 506.775 478, 507 477.775, 507 477.500 C 507 477.225, 506.775 477, 506.500 477 C 506.225 477, 506 477.225, 506 477.500 Z M 626 478.500 C 626 478.775, 626.225 479, 626.500 479 C 626.775 479, 627 478.775, 627 478.500 C 627 478.225, 626.775 478, 626.500 478 C 626.225 478, 626 478.225, 626 478.500 Z M 501 479.500 C 501 479.775, 501.225 480, 501.500 480 C 501.775 480, 502 479.775, 502 479.500 C 502 479.225, 501.775 479, 501.500 479 C 501.225 479, 501 479.225, 501 479.500 Z M 499 480.500 C 499 480.775, 499.225 481, 499.500 481 C 499.775 481, 500 480.775, 500 480.500 C 500 480.225, 499.775 480, 499.500 480 C 499.225 480, 499 480.225, 499 480.500 Z M 633 481.500 C 633 481.775, 633.225 482, 633.500 482 C 633.775 482, 634 481.775, 634 481.500 C 634 481.225, 633.775 481, 633.500 481 C 633.225 481, 633 481.225, 633 481.500 Z M 635 482.500 C 635 482.775, 635.225 483, 635.500 483 C 635.775 483, 636 482.775, 636 482.500 C 636 482.225, 635.775 482, 635.500 482 C 635.225 482, 635 482.225, 635 482.500 Z M 492 483.500 C 492 483.775, 492.225 484, 492.500 484 C 492.775 484, 493 483.775, 493 483.500 C 493 483.225, 492.775 483, 492.500 483 C 492.225 483, 492 483.225, 492 483.500 Z M 637 483.500 C 637 483.775, 637.225 484, 637.500 484 C 637.775 484, 638 483.775, 638 483.500 C 638 483.225, 637.775 483, 637.500 483 C 637.225 483, 637 483.225, 637 483.500 Z M 490 484.500 C 490 484.775, 490.225 485, 490.500 485 C 490.775 485, 491 484.775, 491 484.500 C 491 484.225, 490.775 484, 490.500 484 C 490.225 484, 490 484.225, 490 484.500 Z M 485 487.500 C 485 487.775, 485.225 488, 485.500 488 C 485.775 488, 486 487.775, 486 487.500 C 486 487.225, 485.775 487, 485.500 487 C 485.225 487, 485 487.225, 485 487.500 Z M 483 488.500 C 483 488.775, 483.225 489, 483.500 489 C 483.775 489, 484 488.775, 484 488.500 C 484 488.225, 483.775 488, 483.500 488 C 483.225 488, 483 488.225, 483 488.500 Z M 481 489.500 C 481 489.775, 481.225 490, 481.500 490 C 481.775 490, 482 489.775, 482 489.500 C 482 489.225, 481.775 489, 481.500 489 C 481.225 489, 481 489.225, 481 489.500 Z M 649 490.500 C 649 490.775, 649.225 491, 649.500 491 C 649.775 491, 650 490.775, 650 490.500 C 650 490.225, 649.775 490, 649.500 490 C 649.225 490, 649 490.225, 649 490.500 Z M 478 491.500 C 478 491.775, 478.225 492, 478.500 492 C 478.775 492, 479 491.775, 479 491.500 C 479 491.225, 478.775 491, 478.500 491 C 478.225 491, 478 491.225, 478 491.500 Z M 476 492.500 C 476 492.775, 476.225 493, 476.500 493 C 476.775 493, 477 492.775, 477 492.500 C 477 492.225, 476.775 492, 476.500 492 C 476.225 492, 476 492.225, 476 492.500 Z M 652 492.500 C 652 492.775, 652.225 493, 652.500 493 C 652.775 493, 653 492.775, 653 492.500 C 653 492.225, 652.775 492, 652.500 492 C 652.225 492, 652 492.225, 652 492.500 Z M 473 494.500 C 473 494.775, 473.225 495, 473.500 495 C 473.775 495, 474 494.775, 474 494.500 C 474 494.225, 473.775 494, 473.500 494 C 473.225 494, 473 494.225, 473 494.500 Z M 655 494.500 C 655 494.775, 655.225 495, 655.500 495 C 655.775 495, 656 494.775, 656 494.500 C 656 494.225, 655.775 494, 655.500 494 C 655.225 494, 655 494.225, 655 494.500 Z M 469.405 497.155 C 468.962 497.870, 469.130 498.038, 469.845 497.595 C 470.480 497.203, 471 496.684, 471 496.441 C 471 495.607, 470.117 496.002, 469.405 497.155 Z M 659 497.500 C 659 497.775, 659.225 498, 659.500 498 C 659.775 498, 660 497.775, 660 497.500 C 660 497.225, 659.775 497, 659.500 497 C 659.225 497, 659 497.225, 659 497.500 Z M 466 499.500 C 466 499.775, 466.225 500, 466.500 500 C 466.775 500, 467 499.775, 467 499.500 C 467 499.225, 466.775 499, 466.500 499 C 466.225 499, 466 499.225, 466 499.500 Z M 663 500.500 C 663 500.775, 663.225 501, 663.500 501 C 663.775 501, 664 500.775, 664 500.500 C 664 500.225, 663.775 500, 663.500 500 C 663.225 500, 663 500.225, 663 500.500 Z M 461.405 503.155 C 460.962 503.870, 461.130 504.038, 461.845 503.595 C 462.998 502.883, 463.393 502, 462.559 502 C 462.316 502, 461.797 502.520, 461.405 503.155 Z M 670 506.378 C 670 506.585, 670.788 507.373, 671.750 508.128 C 673.336 509.371, 673.371 509.336, 672.128 507.750 C 670.821 506.084, 670 505.555, 670 506.378 Z M 454.872 508.750 C 453.629 510.336, 453.664 510.371, 455.250 509.128 C 456.212 508.373, 457 507.585, 457 507.378 C 457 506.555, 456.179 507.084, 454.872 508.750 Z M 674 510.500 C 674 510.775, 674.225 511, 674.500 511 C 674.775 511, 675 510.775, 675 510.500 C 675 510.225, 674.775 510, 674.500 510 C 674.225 510, 674 510.225, 674 510.500 Z M 679.500 516 C 679.840 516.550, 680.343 517, 680.618 517 C 680.893 517, 680.840 516.550, 680.500 516 C 680.160 515.450, 679.657 515, 679.382 515 C 679.107 515, 679.160 515.450, 679.500 516 Z M 440.872 522.750 C 439.629 524.336, 439.664 524.371, 441.250 523.128 C 442.916 521.821, 443.445 521, 442.622 521 C 442.415 521, 441.627 521.788, 440.872 522.750 Z M 686 523.500 C 686 523.775, 686.225 524, 686.500 524 C 686.775 524, 687 523.775, 687 523.500 C 687 523.225, 686.775 523, 686.500 523 C 686.225 523, 686 523.225, 686 523.500 Z M 689 527.500 C 689 527.775, 689.225 528, 689.500 528 C 689.775 528, 690 527.775, 690 527.500 C 690 527.225, 689.775 527, 689.500 527 C 689.225 527, 689 527.225, 689 527.500 Z M 436 528.500 C 436 528.775, 436.225 529, 436.500 529 C 436.775 529, 437 528.775, 437 528.500 C 437 528.225, 436.775 528, 436.500 528 C 436.225 528, 436 528.225, 436 528.500 Z M 433 532.500 C 433 532.775, 433.225 533, 433.500 533 C 433.775 533, 434 532.775, 434 532.500 C 434 532.225, 433.775 532, 433.500 532 C 433.225 532, 433 532.225, 433 532.500 Z M 693 532.500 C 693 532.775, 693.225 533, 693.500 533 C 693.775 533, 694 532.775, 694 532.500 C 694 532.225, 693.775 532, 693.500 532 C 693.225 532, 693 532.225, 693 532.500 Z M 695 535.500 C 695 535.775, 695.225 536, 695.500 536 C 695.775 536, 696 535.775, 696 535.500 C 696 535.225, 695.775 535, 695.500 535 C 695.225 535, 695 535.225, 695 535.500 Z M 696 537.500 C 696 537.775, 696.225 538, 696.500 538 C 696.775 538, 697 537.775, 697 537.500 C 697 537.225, 696.775 537, 696.500 537 C 696.225 537, 696 537.225, 696 537.500 Z M 428 539.500 C 428 539.775, 428.225 540, 428.500 540 C 428.775 540, 429 539.775, 429 539.500 C 429 539.225, 428.775 539, 428.500 539 C 428.225 539, 428 539.225, 428 539.500 Z M 698 540.500 C 698 540.775, 698.225 541, 698.500 541 C 698.775 541, 699 540.775, 699 540.500 C 699 540.225, 698.775 540, 698.500 540 C 698.225 540, 698 540.225, 698 540.500 Z M 425 544.500 C 425 544.775, 425.225 545, 425.500 545 C 425.775 545, 426 544.775, 426 544.500 C 426 544.225, 425.775 544, 425.500 544 C 425.225 544, 425 544.225, 425 544.500 Z M 701 545.500 C 701 545.775, 701.225 546, 701.500 546 C 701.775 546, 702 545.775, 702 545.500 C 702 545.225, 701.775 545, 701.500 545 C 701.225 545, 701 545.225, 701 545.500 Z M 422 549.500 C 422 549.775, 422.225 550, 422.500 550 C 422.775 550, 423 549.775, 423 549.500 C 423 549.225, 422.775 549, 422.500 549 C 422.225 549, 422 549.225, 422 549.500 Z M 737.724 550.609 C 737.389 550.944, 738.055 553.532, 739.203 556.359 C 749.613 581.996, 755.127 621.511, 752.118 648.904 C 748.842 678.726, 738.296 709.980, 724.638 730.348 C 721.456 735.094, 720.496 737.253, 721.412 737.605 C 722.129 737.880, 760.692 737.954, 807.108 737.769 L 891.500 737.433 901.304 734.760 C 934.998 725.576, 960.444 700.457, 969.588 667.354 C 972.126 658.169, 972.615 636.352, 970.515 626.063 C 962.722 587.897, 932.012 558.244, 893.281 551.490 C 884.540 549.965, 739.191 549.143, 737.724 550.609 Z M 421 551.500 C 421 551.775, 421.225 552, 421.500 552 C 421.775 552, 422 551.775, 422 551.500 C 422 551.225, 421.775 551, 421.500 551 C 421.225 551, 421 551.225, 421 551.500 Z M 420 553.500 C 420 553.775, 420.225 554, 420.500 554 C 420.775 554, 421 553.775, 421 553.500 C 421 553.225, 420.775 553, 420.500 553 C 420.225 553, 420 553.225, 420 553.500 Z M 706 555.500 C 706 555.775, 706.225 556, 706.500 556 C 706.775 556, 707 555.775, 707 555.500 C 707 555.225, 706.775 555, 706.500 555 C 706.225 555, 706 555.225, 706 555.500 Z M 707 557.500 C 707 557.775, 707.225 558, 707.500 558 C 707.775 558, 708 557.775, 708 557.500 C 708 557.225, 707.775 557, 707.500 557 C 707.225 557, 707 557.225, 707 557.500 Z M 415 563.500 C 415 563.775, 415.225 564, 415.500 564 C 415.775 564, 416 563.775, 416 563.500 C 416 563.225, 415.775 563, 415.500 563 C 415.225 563, 415 563.225, 415 563.500 Z M 413 568.500 C 413 568.775, 413.225 569, 413.500 569 C 413.775 569, 414 568.775, 414 568.500 C 414 568.225, 413.775 568, 413.500 568 C 413.225 568, 413 568.225, 413 568.500 Z M 712 569.500 C 712 569.775, 712.225 570, 712.500 570 C 712.775 570, 713 569.775, 713 569.500 C 713 569.225, 712.775 569, 712.500 569 C 712.225 569, 712 569.225, 712 569.500 Z M 412 570.500 C 412 570.775, 412.225 571, 412.500 571 C 412.775 571, 413 570.775, 413 570.500 C 413 570.225, 412.775 570, 412.500 570 C 412.225 570, 412 570.225, 412 570.500 Z M 713 572.500 C 713 572.775, 713.225 573, 713.500 573 C 713.775 573, 714 572.775, 714 572.500 C 714 572.225, 713.775 572, 713.500 572 C 713.225 572, 713 572.225, 713 572.500 Z M 411 573.500 C 411 573.775, 411.225 574, 411.500 574 C 411.775 574, 412 573.775, 412 573.500 C 412 573.225, 411.775 573, 411.500 573 C 411.225 573, 411 573.225, 411 573.500 Z M 410 576.500 C 410 576.775, 410.225 577, 410.500 577 C 410.775 577, 411 576.775, 411 576.500 C 411 576.225, 410.775 576, 410.500 576 C 410.225 576, 410 576.225, 410 576.500 Z M 715 578.500 C 715 578.775, 715.225 579, 715.500 579 C 715.775 579, 716 578.775, 716 578.500 C 716 578.225, 715.775 578, 715.500 578 C 715.225 578, 715 578.225, 715 578.500 Z M 409 579.500 C 409 579.775, 409.225 580, 409.500 580 C 409.775 580, 410 579.775, 410 579.500 C 410 579.225, 409.775 579, 409.500 579 C 409.225 579, 409 579.225, 409 579.500 Z M 716 581.500 C 716 581.775, 716.225 582, 716.500 582 C 716.775 582, 717 581.775, 717 581.500 C 717 581.225, 716.775 581, 716.500 581 C 716.225 581, 716 581.225, 716 581.500 Z M 408 582.500 C 408 582.775, 408.225 583, 408.500 583 C 408.775 583, 409 582.775, 409 582.500 C 409 582.225, 408.775 582, 408.500 582 C 408.225 582, 408 582.225, 408 582.500 Z M 717 585.500 C 717 585.775, 717.225 586, 717.500 586 C 717.775 586, 718 585.775, 718 585.500 C 718 585.225, 717.775 585, 717.500 585 C 717.225 585, 717 585.225, 717 585.500 Z M 407 586.500 C 407 586.775, 407.225 587, 407.500 587 C 407.775 587, 408 586.775, 408 586.500 C 408 586.225, 407.775 586, 407.500 586 C 407.225 586, 407 586.225, 407 586.500 Z M 718 589.500 C 718 589.775, 718.225 590, 718.500 590 C 718.775 590, 719 589.775, 719 589.500 C 719 589.225, 718.775 589, 718.500 589 C 718.225 589, 718 589.225, 718 589.500 Z M 406 591 C 406 591.733, 406.300 592.033, 406.667 591.667 C 407.033 591.300, 407.033 590.700, 406.667 590.333 C 406.300 589.967, 406 590.267, 406 591 Z M 719 594.500 C 719 594.775, 719.225 595, 719.500 595 C 719.775 595, 720 594.775, 720 594.500 C 720 594.225, 719.775 594, 719.500 594 C 719.225 594, 719 594.225, 719 594.500 Z M 405 595.500 C 405 595.775, 405.225 596, 405.500 596 C 405.775 596, 406 595.775, 406 595.500 C 406 595.225, 405.775 595, 405.500 595 C 405.225 595, 405 595.225, 405 595.500 Z M 720 600 C 720 600.733, 720.300 601.033, 720.667 600.667 C 721.033 600.300, 721.033 599.700, 720.667 599.333 C 720.300 598.967, 720 599.267, 720 600 Z M 404 600.500 C 404 600.775, 404.225 601, 404.500 601 C 404.775 601, 405 600.775, 405 600.500 C 405 600.225, 404.775 600, 404.500 600 C 404.225 600, 404 600.225, 404 600.500 Z M 403 608 C 403 608.733, 403.300 609.033, 403.667 608.667 C 404.033 608.300, 404.033 607.700, 403.667 607.333 C 403.300 606.967, 403 607.267, 403 608 Z M 721 607.500 C 721 607.775, 721.225 608, 721.500 608 C 721.775 608, 722 607.775, 722 607.500 C 722 607.225, 721.775 607, 721.500 607 C 721.225 607, 721 607.225, 721 607.500 Z M 402.195 619.500 C 402.215 621.150, 402.439 621.704, 402.693 620.731 C 402.947 619.758, 402.930 618.408, 402.656 617.731 C 402.382 617.054, 402.175 617.850, 402.195 619.500 Z M 722 620 C 722 620.733, 722.300 621.033, 722.667 620.667 C 723.033 620.300, 723.033 619.700, 722.667 619.333 C 722.300 618.967, 722 619.267, 722 620 Z M 402.195 630.500 C 402.215 632.150, 402.439 632.704, 402.693 631.731 C 402.947 630.758, 402.930 629.408, 402.656 628.731 C 402.382 628.054, 402.175 628.850, 402.195 630.500 Z M 722.158 633 C 722.158 634.375, 722.385 634.938, 722.662 634.250 C 722.940 633.563, 722.940 632.438, 722.662 631.750 C 722.385 631.063, 722.158 631.625, 722.158 633 Z M 403 644 C 403 644.733, 403.300 645.033, 403.667 644.667 C 404.033 644.300, 404.033 643.700, 403.667 643.333 C 403.300 642.967, 403 643.267, 403 644 Z M 721 645.500 C 721 645.775, 721.225 646, 721.500 646 C 721.775 646, 722 645.775, 722 645.500 C 722 645.225, 721.775 645, 721.500 645 C 721.225 645, 721 645.225, 721 645.500 Z M 404 651 C 404 651.733, 404.300 652.033, 404.667 651.667 C 405.033 651.300, 405.033 650.700, 404.667 650.333 C 404.300 649.967, 404 650.267, 404 651 Z M 720 652.500 C 720 652.775, 720.225 653, 720.500 653 C 720.775 653, 721 652.775, 721 652.500 C 721 652.225, 720.775 652, 720.500 652 C 720.225 652, 720 652.225, 720 652.500 Z M 405 657 C 405 657.733, 405.300 658.033, 405.667 657.667 C 406.033 657.300, 406.033 656.700, 405.667 656.333 C 405.300 655.967, 405 656.267, 405 657 Z M 719 658.500 C 719 658.775, 719.225 659, 719.500 659 C 719.775 659, 720 658.775, 720 658.500 C 720 658.225, 719.775 658, 719.500 658 C 719.225 658, 719 658.225, 719 658.500 Z M 406 661.500 C 406 661.775, 406.225 662, 406.500 662 C 406.775 662, 407 661.775, 407 661.500 C 407 661.225, 406.775 661, 406.500 661 C 406.225 661, 406 661.225, 406 661.500 Z M 718 662.500 C 718 662.775, 718.225 663, 718.500 663 C 718.775 663, 719 662.775, 719 662.500 C 719 662.225, 718.775 662, 718.500 662 C 718.225 662, 718 662.225, 718 662.500 Z M 408 668.500 C 408 668.775, 408.225 669, 408.500 669 C 408.775 669, 409 668.775, 409 668.500 C 409 668.225, 408.775 668, 408.500 668 C 408.225 668, 408 668.225, 408 668.500 Z M 409 672.500 C 409 672.775, 409.225 673, 409.500 673 C 409.775 673, 410 672.775, 410 672.500 C 410 672.225, 409.775 672, 409.500 672 C 409.225 672, 409 672.225, 409 672.500 Z M 410 675.500 C 410 675.775, 410.225 676, 410.500 676 C 410.775 676, 411 675.775, 411 675.500 C 411 675.225, 410.775 675, 410.500 675 C 410.225 675, 410 675.225, 410 675.500 Z M 411 678.500 C 411 678.775, 411.225 679, 411.500 679 C 411.775 679, 412 678.775, 412 678.500 C 412 678.225, 411.775 678, 411.500 678 C 411.225 678, 411 678.225, 411 678.500 Z M 412 680.500 C 412 680.775, 412.225 681, 412.500 681 C 412.775 681, 413 680.775, 413 680.500 C 413 680.225, 412.775 680, 412.500 680 C 412.225 680, 412 680.225, 412 680.500 Z M 712 681.500 C 712 681.775, 712.225 682, 712.500 682 C 712.775 682, 713 681.775, 713 681.500 C 713 681.225, 712.775 681, 712.500 681 C 712.225 681, 712 681.225, 712 681.500 Z M 413 683.500 C 413 683.775, 413.225 684, 413.500 684 C 413.775 684, 414 683.775, 414 683.500 C 414 683.225, 413.775 683, 413.500 683 C 413.225 683, 413 683.225, 413 683.500 Z M 711 684.500 C 711 684.775, 711.225 685, 711.500 685 C 711.775 685, 712 684.775, 712 684.500 C 712 684.225, 711.775 684, 711.500 684 C 711.225 684, 711 684.225, 711 684.500 Z M 710 686.500 C 710 686.775, 710.225 687, 710.500 687 C 710.775 687, 711 686.775, 711 686.500 C 711 686.225, 710.775 686, 710.500 686 C 710.225 686, 710 686.225, 710 686.500 Z M 416 690.500 C 416 690.775, 416.225 691, 416.500 691 C 416.775 691, 417 690.775, 417 690.500 C 417 690.225, 416.775 690, 416.500 690 C 416.225 690, 416 690.225, 416 690.500 Z M 418 694.500 C 418 694.775, 418.225 695, 418.500 695 C 418.775 695, 419 694.775, 419 694.500 C 419 694.225, 418.775 694, 418.500 694 C 418.225 694, 418 694.225, 418 694.500 Z M 419 696.500 C 419 696.775, 419.225 697, 419.500 697 C 419.775 697, 420 696.775, 420 696.500 C 420 696.225, 419.775 696, 419.500 696 C 419.225 696, 419 696.225, 419 696.500 Z M 420 698.500 C 420 698.775, 420.225 699, 420.500 699 C 420.775 699, 421 698.775, 421 698.500 C 421 698.225, 420.775 698, 420.500 698 C 420.225 698, 420 698.225, 420 698.500 Z M 421 700.500 C 421 700.775, 421.225 701, 421.500 701 C 421.775 701, 422 700.775, 422 700.500 C 422 700.225, 421.775 700, 421.500 700 C 421.225 700, 421 700.225, 421 700.500 Z M 702 702.500 C 702 702.775, 702.225 703, 702.500 703 C 702.775 703, 703 702.775, 703 702.500 C 703 702.225, 702.775 702, 702.500 702 C 702.225 702, 702 702.225, 702 702.500 Z M 699 707.500 C 699 707.775, 699.225 708, 699.500 708 C 699.775 708, 700 707.775, 700 707.500 C 700 707.225, 699.775 707, 699.500 707 C 699.225 707, 699 707.225, 699 707.500 Z M 425.405 712.250 L 423.500 714.500 425.750 712.595 C 426.988 711.547, 428 710.535, 428 710.345 C 428 709.545, 427.195 710.136, 425.405 712.250 Z M 697 710.500 C 697 710.775, 697.225 711, 697.500 711 C 697.775 711, 698 710.775, 698 710.500 C 698 710.225, 697.775 710, 697.500 710 C 697.225 710, 697 710.225, 697 710.500 Z M 695 713.500 C 695 713.775, 695.225 714, 695.500 714 C 695.775 714, 696 713.775, 696 713.500 C 696 713.225, 695.775 713, 695.500 713 C 695.225 713, 695 713.225, 695 713.500 Z M 693 716.500 C 693 716.775, 693.225 717, 693.500 717 C 693.775 717, 694 716.775, 694 716.500 C 694 716.225, 693.775 716, 693.500 716 C 693.225 716, 693 716.225, 693 716.500 Z M 689 721.500 C 689 721.775, 689.225 722, 689.500 722 C 689.775 722, 690 721.775, 690 721.500 C 690 721.225, 689.775 721, 689.500 721 C 689.225 721, 689 721.225, 689 721.500 Z M 409.405 727.250 L 407.500 729.500 409.750 727.595 C 411.864 725.805, 412.455 725, 411.655 725 C 411.465 725, 410.453 726.013, 409.405 727.250 Z M 685.405 726.155 C 684.962 726.870, 685.130 727.038, 685.845 726.595 C 686.480 726.203, 687 725.684, 687 725.441 C 687 724.607, 686.117 725.002, 685.405 726.155 Z M 391.946 743.750 L 388.500 747.500 392.250 744.054 C 395.740 740.846, 396.460 740, 395.696 740 C 395.529 740, 393.842 741.688, 391.946 743.750 Z M 666.405 745.155 C 665.962 745.870, 666.130 746.038, 666.845 745.595 C 667.998 744.883, 668.393 744, 667.559 744 C 667.316 744, 666.797 744.520, 666.405 745.155 Z M 662 748.500 C 662 748.775, 662.225 749, 662.500 749 C 662.775 749, 663 748.775, 663 748.500 C 663 748.225, 662.775 748, 662.500 748 C 662.225 748, 662 748.225, 662 748.500 Z M 658 751.500 C 658 751.775, 658.225 752, 658.500 752 C 658.775 752, 659 751.775, 659 751.500 C 659 751.225, 658.775 751, 658.500 751 C 658.225 751, 658 751.225, 658 751.500 Z M 377.872 756.750 C 376.629 758.336, 376.664 758.371, 378.250 757.128 C 379.916 755.821, 380.445 755, 379.622 755 C 379.415 755, 378.627 755.788, 377.872 756.750 Z M 646 759.500 C 646 759.775, 646.225 760, 646.500 760 C 646.775 760, 647 759.775, 647 759.500 C 647 759.225, 646.775 759, 646.500 759 C 646.225 759, 646 759.225, 646 759.500 Z M 478 760.500 C 478 760.775, 478.225 761, 478.500 761 C 478.775 761, 479 760.775, 479 760.500 C 479 760.225, 478.775 760, 478.500 760 C 478.225 760, 478 760.225, 478 760.500 Z M 480 761.500 C 480 761.775, 480.225 762, 480.500 762 C 480.775 762, 481 761.775, 481 761.500 C 481 761.225, 480.775 761, 480.500 761 C 480.225 761, 480 761.225, 480 761.500 Z M 482 762.500 C 482 762.775, 482.225 763, 482.500 763 C 482.775 763, 483 762.775, 483 762.500 C 483 762.225, 482.775 762, 482.500 762 C 482.225 762, 482 762.225, 482 762.500 Z M 641 762.500 C 641 762.775, 641.225 763, 641.500 763 C 641.775 763, 642 762.775, 642 762.500 C 642 762.225, 641.775 762, 641.500 762 C 641.225 762, 641 762.225, 641 762.500 Z M 484 763.500 C 484 763.775, 484.225 764, 484.500 764 C 484.775 764, 485 763.775, 485 763.500 C 485 763.225, 484.775 763, 484.500 763 C 484.225 763, 484 763.225, 484 763.500 Z M 639 763.500 C 639 763.775, 639.225 764, 639.500 764 C 639.775 764, 640 763.775, 640 763.500 C 640 763.225, 639.775 763, 639.500 763 C 639.225 763, 639 763.225, 639 763.500 Z M 486 764.500 C 486 764.775, 486.225 765, 486.500 765 C 486.775 765, 487 764.775, 487 764.500 C 487 764.225, 486.775 764, 486.500 764 C 486.225 764, 486 764.225, 486 764.500 Z M 637 764.500 C 637 764.775, 637.225 765, 637.500 765 C 637.775 765, 638 764.775, 638 764.500 C 638 764.225, 637.775 764, 637.500 764 C 637.225 764, 637 764.225, 637 764.500 Z M 633 766.500 C 633 766.775, 633.225 767, 633.500 767 C 633.775 767, 634 766.775, 634 766.500 C 634 766.225, 633.775 766, 633.500 766 C 633.225 766, 633 766.225, 633 766.500 Z M 492 767.500 C 492 767.775, 492.225 768, 492.500 768 C 492.775 768, 493 767.775, 493 767.500 C 493 767.225, 492.775 767, 492.500 767 C 492.225 767, 492 767.225, 492 767.500 Z M 631 767.500 C 631 767.775, 631.225 768, 631.500 768 C 631.775 768, 632 767.775, 632 767.500 C 632 767.225, 631.775 767, 631.500 767 C 631.225 767, 631 767.225, 631 767.500 Z M 365 768.500 C 365 768.775, 365.225 769, 365.500 769 C 365.775 769, 366 768.775, 366 768.500 C 366 768.225, 365.775 768, 365.500 768 C 365.225 768, 365 768.225, 365 768.500 Z M 361.872 771.750 C 360.629 773.336, 360.664 773.371, 362.250 772.128 C 363.916 770.821, 364.445 770, 363.622 770 C 363.415 770, 362.627 770.788, 361.872 771.750 Z M 463.946 773.750 L 460.500 777.500 464.250 774.054 C 467.740 770.846, 468.460 770, 467.696 770 C 467.529 770, 465.842 771.688, 463.946 773.750 Z M 499 770.500 C 499 770.775, 499.225 771, 499.500 771 C 499.775 771, 500 770.775, 500 770.500 C 500 770.225, 499.775 770, 499.500 770 C 499.225 770, 499 770.225, 499 770.500 Z M 504 772.500 C 504 772.775, 504.225 773, 504.500 773 C 504.775 773, 505 772.775, 505 772.500 C 505 772.225, 504.775 772, 504.500 772 C 504.225 772, 504 772.225, 504 772.500 Z M 619 772.500 C 619 772.775, 619.225 773, 619.500 773 C 619.775 773, 620 772.775, 620 772.500 C 620 772.225, 619.775 772, 619.500 772 C 619.225 772, 619 772.225, 619 772.500 Z M 616 773.500 C 616 773.775, 616.225 774, 616.500 774 C 616.775 774, 617 773.775, 617 773.500 C 617 773.225, 616.775 773, 616.500 773 C 616.225 773, 616 773.225, 616 773.500 Z M 509 774.500 C 509 774.775, 509.225 775, 509.500 775 C 509.775 775, 510 774.775, 510 774.500 C 510 774.225, 509.775 774, 509.500 774 C 509.225 774, 509 774.225, 509 774.500 Z M 613 774.500 C 613 774.775, 613.225 775, 613.500 775 C 613.775 775, 614 774.775, 614 774.500 C 614 774.225, 613.775 774, 613.500 774 C 613.225 774, 613 774.225, 613 774.500 Z M 513 775.500 C 513 775.775, 513.225 776, 513.500 776 C 513.775 776, 514 775.775, 514 775.500 C 514 775.225, 513.775 775, 513.500 775 C 513.225 775, 513 775.225, 513 775.500 Z M 610 775.500 C 610 775.775, 610.225 776, 610.500 776 C 610.775 776, 611 775.775, 611 775.500 C 611 775.225, 610.775 775, 610.500 775 C 610.225 775, 610 775.225, 610 775.500 Z M 516 776.500 C 516 776.775, 516.225 777, 516.500 777 C 516.775 777, 517 776.775, 517 776.500 C 517 776.225, 516.775 776, 516.500 776 C 516.225 776, 516 776.225, 516 776.500 Z M 606 776.500 C 606 776.775, 606.225 777, 606.500 777 C 606.775 777, 607 776.775, 607 776.500 C 607 776.225, 606.775 776, 606.500 776 C 606.225 776, 606 776.225, 606 776.500 Z M 594 779.500 C 594 779.775, 594.225 780, 594.500 780 C 594.775 780, 595 779.775, 595 779.500 C 595 779.225, 594.775 779, 594.500 779 C 594.225 779, 594 779.225, 594 779.500 Z M 589 780.500 C 589 780.775, 589.225 781, 589.500 781 C 589.775 781, 590 780.775, 590 780.500 C 590 780.225, 589.775 780, 589.500 780 C 589.225 780, 589 780.225, 589 780.500 Z M 348.924 783.750 L 346.500 786.500 349.250 784.076 C 351.820 781.810, 352.459 781, 351.674 781 C 351.495 781, 350.258 782.237, 348.924 783.750 Z M 540 781.500 C 540 781.775, 540.225 782, 540.500 782 C 540.775 782, 541 781.775, 541 781.500 C 541 781.225, 540.775 781, 540.500 781 C 540.225 781, 540 781.225, 540 781.500 Z M 582 781.500 C 582 781.775, 582.225 782, 582.500 782 C 582.775 782, 583 781.775, 583 781.500 C 583 781.225, 582.775 781, 582.500 781 C 582.225 781, 582 781.225, 582 781.500 Z M 550.813 782.683 C 551.534 782.972, 552.397 782.936, 552.729 782.604 C 553.061 782.272, 552.471 782.036, 551.417 782.079 C 550.252 782.127, 550.015 782.364, 550.813 782.683 Z M 570.813 782.683 C 571.534 782.972, 572.397 782.936, 572.729 782.604 C 573.061 782.272, 572.471 782.036, 571.417 782.079 C 570.252 782.127, 570.015 782.364, 570.813 782.683 Z M 447.405 789.250 L 445.500 791.500 447.750 789.595 C 448.988 788.547, 450 787.535, 450 787.345 C 450 786.545, 449.195 787.136, 447.405 789.250 Z M 335.872 795.750 C 334.629 797.336, 334.664 797.371, 336.250 796.128 C 337.916 794.821, 338.445 794, 337.622 794 C 337.415 794, 336.627 794.788, 335.872 795.750 Z M 332 799.500 C 332 799.775, 332.225 800, 332.500 800 C 332.775 800, 333 799.775, 333 799.500 C 333 799.225, 332.775 799, 332.500 799 C 332.225 799, 332 799.225, 332 799.500 Z M 430.405 805.250 L 428.500 807.500 430.750 805.595 C 432.864 803.805, 433.455 803, 432.655 803 C 432.465 803, 431.453 804.013, 430.405 805.250 Z M 418 816.500 C 418 816.775, 418.225 817, 418.500 817 C 418.775 817, 419 816.775, 419 816.500 C 419 816.225, 418.775 816, 418.500 816 C 418.225 816, 418 816.225, 418 816.500 Z M 402.405 831.155 C 401.962 831.870, 402.130 832.038, 402.845 831.595 C 403.998 830.883, 404.393 830, 403.559 830 C 403.316 830, 402.797 830.520, 402.405 831.155 Z M 390.405 842.250 L 388.500 844.500 390.750 842.595 C 392.864 840.805, 393.455 840, 392.655 840 C 392.465 840, 391.453 841.013, 390.405 842.250 Z M 378 853.500 C 378 853.775, 378.225 854, 378.500 854 C 378.775 854, 379 853.775, 379 853.500 C 379 853.225, 378.775 853, 378.500 853 C 378.225 853, 378 853.225, 378 853.500 Z M 365.405 865.250 L 363.500 867.500 365.750 865.595 C 366.988 864.547, 368 863.535, 368 863.345 C 368 862.545, 367.195 863.136, 365.405 865.250 Z M 312 870.500 C 312 870.775, 312.225 871, 312.500 871 C 312.775 871, 313 870.775, 313 870.500 C 313 870.225, 312.775 870, 312.500 870 C 312.225 870, 312 870.225, 312 870.500 Z M 357 872.500 C 357 872.775, 357.225 873, 357.500 873 C 357.775 873, 358 872.775, 358 872.500 C 358 872.225, 357.775 872, 357.500 872 C 357.225 872, 357 872.225, 357 872.500 Z M 316 873.500 C 316 873.775, 316.225 874, 316.500 874 C 316.775 874, 317 873.775, 317 873.500 C 317 873.225, 316.775 873, 316.500 873 C 316.225 873, 316 873.225, 316 873.500 Z M 354 874.500 C 354 874.775, 354.225 875, 354.500 875 C 354.775 875, 355 874.775, 355 874.500 C 355 874.225, 354.775 874, 354.500 874 C 354.225 874, 354 874.225, 354 874.500 Z M 348 877.500 C 348 877.775, 348.225 878, 348.500 878 C 348.775 878, 349 877.775, 349 877.500 C 349 877.225, 348.775 877, 348.500 877 C 348.225 877, 348 877.225, 348 877.500 Z M 345 878.500 C 345 878.775, 345.225 879, 345.500 879 C 345.775 879, 346 878.775, 346 878.500 C 346 878.225, 345.775 878, 345.500 878 C 345.225 878, 345 878.225, 345 878.500 Z M 332 879.500 C 332 879.775, 332.225 880, 332.500 880 C 332.775 880, 333 879.775, 333 879.500 C 333 879.225, 332.775 879, 332.500 879 C 332.225 879, 332 879.225, 332 879.500 Z M 339.333 879.667 C 339.700 880.033, 340.300 880.033, 340.667 879.667 C 341.033 879.300, 340.733 879, 340 879 C 339.267 879, 338.967 879.300, 339.333 879.667 Z" stroke="none" fill="#006ef4" fill-rule="evenodd"/><path d="M 552.500 467.056 C 517.723 470.065, 481.488 485.659, 456.219 508.491 C 429.567 532.573, 413.734 559.808, 405.805 595.209 C 402.423 610.306, 402.429 641.719, 405.816 656.844 C 409.866 674.929, 416.836 692.559, 425.462 706.539 L 427.954 710.578 414.227 723.444 C 366.775 767.922, 332.613 799.476, 332.075 799.325 C 331.732 799.229, 325.751 804.629, 318.784 811.325 C 308.805 820.915, 305.561 824.712, 303.503 829.210 C 297.519 842.286, 299.732 857.787, 308.878 866.868 C 311.420 869.392, 312.575 870.792, 311.445 869.979 C 310.315 869.165, 310.725 869.719, 312.358 871.209 C 313.990 872.698, 315.702 873.684, 316.163 873.400 C 316.623 873.115, 317 873.375, 317 873.977 C 317 876.339, 326.297 879.244, 333.733 879.205 C 346.620 879.136, 352.998 876.551, 363.156 867.277 C 379.962 851.933, 450.231 786.692, 463.456 774.152 C 471.682 766.352, 478.657 760.113, 478.956 760.288 C 498.977 771.958, 526.285 780.317, 549.844 781.986 C 630.546 787.705, 701.801 735.481, 719.176 657.881 C 722.537 642.867, 722.525 609.646, 719.152 594 C 701.751 513.282, 632.031 460.175, 552.500 467.056 Z M 556 506.138 C 514.645 508.916, 475.555 535.128, 456.604 572.789 C 438.783 608.203, 440.223 652.181, 460.292 685.384 C 501.503 753.567, 595.658 764.299, 650.833 707.102 C 702.627 653.410, 692.616 565.684, 630.024 524.760 C 607.997 510.359, 583.798 504.271, 556 506.138 Z M 616.165 568.250 C 613.727 569.572, 604.858 578.134, 594.672 589 C 585.133 599.175, 569.910 614.560, 560.842 623.190 L 544.355 638.879 528.928 623.427 C 511.570 606.042, 509.002 604.470, 499.115 605.185 C 491.748 605.718, 486.072 609.321, 482.187 615.930 C 478.878 621.558, 478.529 631.324, 481.435 637 C 484.360 642.715, 529.728 687.879, 534.905 690.230 C 540.637 692.833, 547.457 692.776, 553.566 690.074 C 559.357 687.512, 643.696 604.184, 646.696 598.061 C 649.563 592.209, 649.113 582.543, 645.704 576.744 C 639.911 566.888, 626.035 562.898, 616.165 568.250 Z" stroke="none" fill="#fdfdfd" fill-rule="evenodd"/><path d="M 558.269 466.693 C 559.242 466.947, 560.592 466.930, 561.269 466.656 C 561.946 466.382, 561.150 466.175, 559.500 466.195 C 557.850 466.215, 557.296 466.439, 558.269 466.693 Z M 572.750 466.662 C 573.438 466.940, 574.563 466.940, 575.250 466.662 C 575.938 466.385, 575.375 466.158, 574 466.158 C 572.625 466.158, 572.063 466.385, 572.750 466.662 Z M 547 467.500 C 547 467.775, 547.225 468, 547.500 468 C 547.775 468, 548 467.775, 548 467.500 C 548 467.225, 547.775 467, 547.500 467 C 547.225 467, 547 467.225, 547 467.500 Z M 585 467.500 C 585 467.775, 585.225 468, 585.500 468 C 585.775 468, 586 467.775, 586 467.500 C 586 467.225, 585.775 467, 585.500 467 C 585.225 467, 585 467.225, 585 467.500 Z M 539 468.500 C 539 468.775, 539.225 469, 539.500 469 C 539.775 469, 540 468.775, 540 468.500 C 540 468.225, 539.775 468, 539.500 468 C 539.225 468, 539 468.225, 539 468.500 Z M 592 468.500 C 592 468.775, 592.225 469, 592.500 469 C 592.775 469, 593 468.775, 593 468.500 C 593 468.225, 592.775 468, 592.500 468 C 592.225 468, 592 468.225, 592 468.500 Z M 534 469.500 C 534 469.775, 534.225 470, 534.500 470 C 534.775 470, 535 469.775, 535 469.500 C 535 469.225, 534.775 469, 534.500 469 C 534.225 469, 534 469.225, 534 469.500 Z M 597 469.500 C 597 469.775, 597.225 470, 597.500 470 C 597.775 470, 598 469.775, 598 469.500 C 598 469.225, 597.775 469, 597.500 469 C 597.225 469, 597 469.225, 597 469.500 Z M 525 471.500 C 525 471.775, 525.225 472, 525.500 472 C 525.775 472, 526 471.775, 526 471.500 C 526 471.225, 525.775 471, 525.500 471 C 525.225 471, 525 471.225, 525 471.500 Z M 609 472.500 C 609 472.775, 609.225 473, 609.500 473 C 609.775 473, 610 472.775, 610 472.500 C 610 472.225, 609.775 472, 609.500 472 C 609.225 472, 609 472.225, 609 472.500 Z M 612 473.500 C 612 473.775, 612.225 474, 612.500 474 C 612.775 474, 613 473.775, 613 473.500 C 613 473.225, 612.775 473, 612.500 473 C 612.225 473, 612 473.225, 612 473.500 Z M 515 474.500 C 515 474.775, 515.225 475, 515.500 475 C 515.775 475, 516 474.775, 516 474.500 C 516 474.225, 515.775 474, 515.500 474 C 515.225 474, 515 474.225, 515 474.500 Z M 615 474.500 C 615 474.775, 615.225 475, 615.500 475 C 615.775 475, 616 474.775, 616 474.500 C 616 474.225, 615.775 474, 615.500 474 C 615.225 474, 615 474.225, 615 474.500 Z M 512 475.500 C 512 475.775, 512.225 476, 512.500 476 C 512.775 476, 513 475.775, 513 475.500 C 513 475.225, 512.775 475, 512.500 475 C 512.225 475, 512 475.225, 512 475.500 Z M 509 476.500 C 509 476.775, 509.225 477, 509.500 477 C 509.775 477, 510 476.775, 510 476.500 C 510 476.225, 509.775 476, 509.500 476 C 509.225 476, 509 476.225, 509 476.500 Z M 621 476.500 C 621 476.775, 621.225 477, 621.500 477 C 621.775 477, 622 476.775, 622 476.500 C 622 476.225, 621.775 476, 621.500 476 C 621.225 476, 621 476.225, 621 476.500 Z M 504 478.500 C 504 478.775, 504.225 479, 504.500 479 C 504.775 479, 505 478.775, 505 478.500 C 505 478.225, 504.775 478, 504.500 478 C 504.225 478, 504 478.225, 504 478.500 Z M 628 479.500 C 628 479.775, 628.225 480, 628.500 480 C 628.775 480, 629 479.775, 629 479.500 C 629 479.225, 628.775 479, 628.500 479 C 628.225 479, 628 479.225, 628 479.500 Z M 497 481.500 C 497 481.775, 497.225 482, 497.500 482 C 497.775 482, 498 481.775, 498 481.500 C 498 481.225, 497.775 481, 497.500 481 C 497.225 481, 497 481.225, 497 481.500 Z M 495 482.500 C 495 482.775, 495.225 483, 495.500 483 C 495.775 483, 496 482.775, 496 482.500 C 496 482.225, 495.775 482, 495.500 482 C 495.225 482, 495 482.225, 495 482.500 Z M 487 486.500 C 487 486.775, 487.225 487, 487.500 487 C 487.775 487, 488 486.775, 488 486.500 C 488 486.225, 487.775 486, 487.500 486 C 487.225 486, 487 486.225, 487 486.500 Z M 642 486.500 C 642 486.775, 642.225 487, 642.500 487 C 642.775 487, 643 486.775, 643 486.500 C 643 486.225, 642.775 486, 642.500 486 C 642.225 486, 642 486.225, 642 486.500 Z M 644 487.500 C 644 487.775, 644.225 488, 644.500 488 C 644.775 488, 645 487.775, 645 487.500 C 645 487.225, 644.775 487, 644.500 487 C 644.225 487, 644 487.225, 644 487.500 Z M 647 489.500 C 647 489.775, 647.225 490, 647.500 490 C 647.775 490, 648 489.775, 648 489.500 C 648 489.225, 647.775 489, 647.500 489 C 647.225 489, 647 489.225, 647 489.500 Z M 480 490.500 C 480 490.775, 480.225 491, 480.500 491 C 480.775 491, 481 490.775, 481 490.500 C 481 490.225, 480.775 490, 480.500 490 C 480.225 490, 480 490.225, 480 490.500 Z M 650 491.500 C 650 491.775, 650.225 492, 650.500 492 C 650.775 492, 651 491.775, 651 491.500 C 651 491.225, 650.775 491, 650.500 491 C 650.225 491, 650 491.225, 650 491.500 Z M 475 493.500 C 475 493.775, 475.225 494, 475.500 494 C 475.775 494, 476 493.775, 476 493.500 C 476 493.225, 475.775 493, 475.500 493 C 475.225 493, 475 493.225, 475 493.500 Z M 472 495.500 C 472 495.775, 472.225 496, 472.500 496 C 472.775 496, 473 495.775, 473 495.500 C 473 495.225, 472.775 495, 472.500 495 C 472.225 495, 472 495.225, 472 495.500 Z M 656 495.500 C 656 495.775, 656.225 496, 656.500 496 C 656.775 496, 657 495.775, 657 495.500 C 657 495.225, 656.775 495, 656.500 495 C 656.225 495, 656 495.225, 656 495.500 Z M 660 498.500 C 660 498.775, 660.225 499, 660.500 499 C 660.775 499, 661 498.775, 661 498.500 C 661 498.225, 660.775 498, 660.500 498 C 660.225 498, 660 498.225, 660 498.500 Z M 465 500.500 C 465 500.775, 465.225 501, 465.500 501 C 465.775 501, 466 500.775, 466 500.500 C 466 500.225, 465.775 500, 465.500 500 C 465.225 500, 465 500.225, 465 500.500 Z M 664 501.500 C 664 501.775, 664.225 502, 664.500 502 C 664.775 502, 665 501.775, 665 501.500 C 665 501.225, 664.775 501, 664.500 501 C 664.225 501, 664 501.225, 664 501.500 Z M 460 504.500 C 460 504.775, 460.225 505, 460.500 505 C 460.775 505, 461 504.775, 461 504.500 C 461 504.225, 460.775 504, 460.500 504 C 460.225 504, 460 504.225, 460 504.500 Z M 556 506.138 C 514.645 508.916, 475.555 535.128, 456.604 572.789 C 438.783 608.203, 440.223 652.181, 460.292 685.384 C 501.503 753.567, 595.658 764.299, 650.833 707.102 C 702.627 653.410, 692.616 565.684, 630.024 524.760 C 607.997 510.359, 583.798 504.271, 556 506.138 Z M 673 509.500 C 673 509.775, 673.225 510, 673.500 510 C 673.775 510, 674 509.775, 674 509.500 C 674 509.225, 673.775 509, 673.500 509 C 673.225 509, 673 509.225, 673 509.500 Z M 450.924 512.750 L 448.500 515.500 451.250 513.076 C 452.762 511.742, 454 510.505, 454 510.326 C 454 509.541, 453.190 510.180, 450.924 512.750 Z M 676.500 513 C 677.495 514.100, 678.535 515, 678.810 515 C 679.085 515, 678.495 514.100, 677.500 513 C 676.505 511.900, 675.465 511, 675.190 511 C 674.915 511, 675.505 511.900, 676.500 513 Z M 444.924 518.750 L 442.500 521.500 445.250 519.076 C 447.820 516.810, 448.459 516, 447.674 516 C 447.495 516, 446.258 517.237, 444.924 518.750 Z M 685 522.500 C 685 522.775, 685.225 523, 685.500 523 C 685.775 523, 686 522.775, 686 522.500 C 686 522.225, 685.775 522, 685.500 522 C 685.225 522, 685 522.225, 685 522.500 Z M 688 526.500 C 688 526.775, 688.225 527, 688.500 527 C 688.775 527, 689 526.775, 689 526.500 C 689 526.225, 688.775 526, 688.500 526 C 688.225 526, 688 526.225, 688 526.500 Z M 437 527.500 C 437 527.775, 437.225 528, 437.500 528 C 437.775 528, 438 527.775, 438 527.500 C 438 527.225, 437.775 527, 437.500 527 C 437.225 527, 437 527.225, 437 527.500 Z M 692 531.500 C 692 531.775, 692.225 532, 692.500 532 C 692.775 532, 693 531.775, 693 531.500 C 693 531.225, 692.775 531, 692.500 531 C 692.225 531, 692 531.225, 692 531.500 Z M 694 534.500 C 694 534.775, 694.225 535, 694.500 535 C 694.775 535, 695 534.775, 695 534.500 C 695 534.225, 694.775 534, 694.500 534 C 694.225 534, 694 534.225, 694 534.500 Z M 431 535.500 C 431 535.775, 431.225 536, 431.500 536 C 431.775 536, 432 535.775, 432 535.500 C 432 535.225, 431.775 535, 431.500 535 C 431.225 535, 431 535.225, 431 535.500 Z M 429 538.500 C 429 538.775, 429.225 539, 429.500 539 C 429.775 539, 430 538.775, 430 538.500 C 430 538.225, 429.775 538, 429.500 538 C 429.225 538, 429 538.225, 429 538.500 Z M 697 539.500 C 697 539.775, 697.225 540, 697.500 540 C 697.775 540, 698 539.775, 698 539.500 C 698 539.225, 697.775 539, 697.500 539 C 697.225 539, 697 539.225, 697 539.500 Z M 427 541.500 C 427 541.775, 427.225 542, 427.500 542 C 427.775 542, 428 541.775, 428 541.500 C 428 541.225, 427.775 541, 427.500 541 C 427.225 541, 427 541.225, 427 541.500 Z M 699 542.500 C 699 542.775, 699.225 543, 699.500 543 C 699.775 543, 700 542.775, 700 542.500 C 700 542.225, 699.775 542, 699.500 542 C 699.225 542, 699 542.225, 699 542.500 Z M 702 547.500 C 702 547.775, 702.225 548, 702.500 548 C 702.775 548, 703 547.775, 703 547.500 C 703 547.225, 702.775 547, 702.500 547 C 702.225 547, 702 547.225, 702 547.500 Z M 703 549.500 C 703 549.775, 703.225 550, 703.500 550 C 703.775 550, 704 549.775, 704 549.500 C 704 549.225, 703.775 549, 703.500 549 C 703.225 549, 703 549.225, 703 549.500 Z M 704 551.500 C 704 551.775, 704.225 552, 704.500 552 C 704.775 552, 705 551.775, 705 551.500 C 705 551.225, 704.775 551, 704.500 551 C 704.225 551, 704 551.225, 704 551.500 Z M 705 553.500 C 705 553.775, 705.225 554, 705.500 554 C 705.775 554, 706 553.775, 706 553.500 C 706 553.225, 705.775 553, 705.500 553 C 705.225 553, 705 553.225, 705 553.500 Z M 419 555.500 C 419 555.775, 419.225 556, 419.500 556 C 419.775 556, 420 555.775, 420 555.500 C 420 555.225, 419.775 555, 419.500 555 C 419.225 555, 419 555.225, 419 555.500 Z M 418 557.500 C 418 557.775, 418.225 558, 418.500 558 C 418.775 558, 419 557.775, 419 557.500 C 419 557.225, 418.775 557, 418.500 557 C 418.225 557, 418 557.225, 418 557.500 Z M 417 559.500 C 417 559.775, 417.225 560, 417.500 560 C 417.775 560, 418 559.775, 418 559.500 C 418 559.225, 417.775 559, 417.500 559 C 417.225 559, 417 559.225, 417 559.500 Z M 708 560.500 C 708 560.775, 708.225 561, 708.500 561 C 708.775 561, 709 560.775, 709 560.500 C 709 560.225, 708.775 560, 708.500 560 C 708.225 560, 708 560.225, 708 560.500 Z M 416 561.500 C 416 561.775, 416.225 562, 416.500 562 C 416.775 562, 417 561.775, 417 561.500 C 417 561.225, 416.775 561, 416.500 561 C 416.225 561, 416 561.225, 416 561.500 Z M 709 562.500 C 709 562.775, 709.225 563, 709.500 563 C 709.775 563, 710 562.775, 710 562.500 C 710 562.225, 709.775 562, 709.500 562 C 709.225 562, 709 562.225, 709 562.500 Z M 710 564.500 C 710 564.775, 710.225 565, 710.500 565 C 710.775 565, 711 564.775, 711 564.500 C 711 564.225, 710.775 564, 710.500 564 C 710.225 564, 710 564.225, 710 564.500 Z M 414 566.500 C 414 566.775, 414.225 567, 414.500 567 C 414.775 567, 415 566.775, 415 566.500 C 415 566.225, 414.775 566, 414.500 566 C 414.225 566, 414 566.225, 414 566.500 Z M 616.165 568.250 C 613.727 569.572, 604.858 578.134, 594.672 589 C 585.133 599.175, 569.910 614.560, 560.842 623.190 L 544.355 638.879 528.928 623.427 C 511.570 606.042, 509.002 604.470, 499.115 605.185 C 491.748 605.718, 486.072 609.321, 482.187 615.930 C 478.878 621.558, 478.529 631.324, 481.435 637 C 484.360 642.715, 529.728 687.879, 534.905 690.230 C 540.637 692.833, 547.457 692.776, 553.566 690.074 C 559.357 687.512, 643.696 604.184, 646.696 598.061 C 649.563 592.209, 649.113 582.543, 645.704 576.744 C 639.911 566.888, 626.035 562.898, 616.165 568.250 Z M 711 567.500 C 711 567.775, 711.225 568, 711.500 568 C 711.775 568, 712 567.775, 712 567.500 C 712 567.225, 711.775 567, 711.500 567 C 711.225 567, 711 567.225, 711 567.500 Z M 712 570.500 C 712 570.775, 712.225 571, 712.500 571 C 712.775 571, 713 570.775, 713 570.500 C 713 570.225, 712.775 570, 712.500 570 C 712.225 570, 712 570.225, 712 570.500 Z M 412 571.500 C 412 571.775, 412.225 572, 412.500 572 C 412.775 572, 413 571.775, 413 571.500 C 413 571.225, 412.775 571, 412.500 571 C 412.225 571, 412 571.225, 412 571.500 Z M 714 575.500 C 714 575.775, 714.225 576, 714.500 576 C 714.775 576, 715 575.775, 715 575.500 C 715 575.225, 714.775 575, 714.500 575 C 714.225 575, 714 575.225, 714 575.500 Z M 409 580.500 C 409 580.775, 409.225 581, 409.500 581 C 409.775 581, 410 580.775, 410 580.500 C 410 580.225, 409.775 580, 409.500 580 C 409.225 580, 409 580.225, 409 580.500 Z M 716 582.500 C 716 582.775, 716.225 583, 716.500 583 C 716.775 583, 717 582.775, 717 582.500 C 717 582.225, 716.775 582, 716.500 582 C 716.225 582, 716 582.225, 716 582.500 Z M 408 583.500 C 408 583.775, 408.225 584, 408.500 584 C 408.775 584, 409 583.775, 409 583.500 C 409 583.225, 408.775 583, 408.500 583 C 408.225 583, 408 583.225, 408 583.500 Z M 717 586.500 C 717 586.775, 717.225 587, 717.500 587 C 717.775 587, 718 586.775, 718 586.500 C 718 586.225, 717.775 586, 717.500 586 C 717.225 586, 717 586.225, 717 586.500 Z M 407 587.500 C 407 587.775, 407.225 588, 407.500 588 C 407.775 588, 408 587.775, 408 587.500 C 408 587.225, 407.775 587, 407.500 587 C 407.225 587, 407 587.225, 407 587.500 Z M 718 590.500 C 718 590.775, 718.225 591, 718.500 591 C 718.775 591, 719 590.775, 719 590.500 C 719 590.225, 718.775 590, 718.500 590 C 718.225 590, 718 590.225, 718 590.500 Z M 719 595.500 C 719 595.775, 719.225 596, 719.500 596 C 719.775 596, 720 595.775, 720 595.500 C 720 595.225, 719.775 595, 719.500 595 C 719.225 595, 719 595.225, 719 595.500 Z M 405 596.500 C 405 596.775, 405.225 597, 405.500 597 C 405.775 597, 406 596.775, 406 596.500 C 406 596.225, 405.775 596, 405.500 596 C 405.225 596, 405 596.225, 405 596.500 Z M 404 601.500 C 404 601.775, 404.225 602, 404.500 602 C 404.775 602, 405 601.775, 405 601.500 C 405 601.225, 404.775 601, 404.500 601 C 404.225 601, 404 601.225, 404 601.500 Z M 720 601.500 C 720 601.775, 720.225 602, 720.500 602 C 720.775 602, 721 601.775, 721 601.500 C 721 601.225, 720.775 601, 720.500 601 C 720.225 601, 720 601.225, 720 601.500 Z M 721 609 C 721 609.733, 721.300 610.033, 721.667 609.667 C 722.033 609.300, 722.033 608.700, 721.667 608.333 C 721.300 607.967, 721 608.267, 721 609 Z M 722.300 626 C 722.300 629.025, 722.487 630.263, 722.716 628.750 C 722.945 627.237, 722.945 624.763, 722.716 623.250 C 722.487 621.737, 722.300 622.975, 722.300 626 Z M 402.232 625 C 402.232 626.925, 402.438 627.712, 402.689 626.750 C 402.941 625.788, 402.941 624.212, 402.689 623.250 C 402.438 622.288, 402.232 623.075, 402.232 625 Z M 403 642.500 C 403 642.775, 403.225 643, 403.500 643 C 403.775 643, 404 642.775, 404 642.500 C 404 642.225, 403.775 642, 403.500 642 C 403.225 642, 403 642.225, 403 642.500 Z M 721 644 C 721 644.733, 721.300 645.033, 721.667 644.667 C 722.033 644.300, 722.033 643.700, 721.667 643.333 C 721.300 642.967, 721 643.267, 721 644 Z M 720 651.500 C 720 651.775, 720.225 652, 720.500 652 C 720.775 652, 721 651.775, 721 651.500 C 721 651.225, 720.775 651, 720.500 651 C 720.225 651, 720 651.225, 720 651.500 Z M 405 655.500 C 405 655.775, 405.225 656, 405.500 656 C 405.775 656, 406 655.775, 406 655.500 C 406 655.225, 405.775 655, 405.500 655 C 405.225 655, 405 655.225, 405 655.500 Z M 719 657 C 719 657.733, 719.300 658.033, 719.667 657.667 C 720.033 657.300, 720.033 656.700, 719.667 656.333 C 719.300 655.967, 719 656.267, 719 657 Z M 406 660.500 C 406 660.775, 406.225 661, 406.500 661 C 406.775 661, 407 660.775, 407 660.500 C 407 660.225, 406.775 660, 406.500 660 C 406.225 660, 406 660.225, 406 660.500 Z M 718 661.500 C 718 661.775, 718.225 662, 718.500 662 C 718.775 662, 719 661.775, 719 661.500 C 719 661.225, 718.775 661, 718.500 661 C 718.225 661, 718 661.225, 718 661.500 Z M 407 664.500 C 407 664.775, 407.225 665, 407.500 665 C 407.775 665, 408 664.775, 408 664.500 C 408 664.225, 407.775 664, 407.500 664 C 407.225 664, 407 664.225, 407 664.500 Z M 717 665.500 C 717 665.775, 717.225 666, 717.500 666 C 717.775 666, 718 665.775, 718 665.500 C 718 665.225, 717.775 665, 717.500 665 C 717.225 665, 717 665.225, 717 665.500 Z M 716 669.500 C 716 669.775, 716.225 670, 716.500 670 C 716.775 670, 717 669.775, 717 669.500 C 717 669.225, 716.775 669, 716.500 669 C 716.225 669, 716 669.225, 716 669.500 Z M 409 671.500 C 409 671.775, 409.225 672, 409.500 672 C 409.775 672, 410 671.775, 410 671.500 C 410 671.225, 409.775 671, 409.500 671 C 409.225 671, 409 671.225, 409 671.500 Z M 715 672.500 C 715 672.775, 715.225 673, 715.500 673 C 715.775 673, 716 672.775, 716 672.500 C 716 672.225, 715.775 672, 715.500 672 C 715.225 672, 715 672.225, 715 672.500 Z M 410 674.500 C 410 674.775, 410.225 675, 410.500 675 C 410.775 675, 411 674.775, 411 674.500 C 411 674.225, 410.775 674, 410.500 674 C 410.225 674, 410 674.225, 410 674.500 Z M 714 675.500 C 714 675.775, 714.225 676, 714.500 676 C 714.775 676, 715 675.775, 715 675.500 C 715 675.225, 714.775 675, 714.500 675 C 714.225 675, 714 675.225, 714 675.500 Z M 411 677.500 C 411 677.775, 411.225 678, 411.500 678 C 411.775 678, 412 677.775, 412 677.500 C 412 677.225, 411.775 677, 411.500 677 C 411.225 677, 411 677.225, 411 677.500 Z M 713 678.500 C 713 678.775, 713.225 679, 713.500 679 C 713.775 679, 714 678.775, 714 678.500 C 714 678.225, 713.775 678, 713.500 678 C 713.225 678, 713 678.225, 713 678.500 Z M 711 683.500 C 711 683.775, 711.225 684, 711.500 684 C 711.775 684, 712 683.775, 712 683.500 C 712 683.225, 711.775 683, 711.500 683 C 711.225 683, 711 683.225, 711 683.500 Z M 414 685.500 C 414 685.775, 414.225 686, 414.500 686 C 414.775 686, 415 685.775, 415 685.500 C 415 685.225, 414.775 685, 414.500 685 C 414.225 685, 414 685.225, 414 685.500 Z M 709 688.500 C 709 688.775, 709.225 689, 709.500 689 C 709.775 689, 710 688.775, 710 688.500 C 710 688.225, 709.775 688, 709.500 688 C 709.225 688, 709 688.225, 709 688.500 Z M 708 690.500 C 708 690.775, 708.225 691, 708.500 691 C 708.775 691, 709 690.775, 709 690.500 C 709 690.225, 708.775 690, 708.500 690 C 708.225 690, 708 690.225, 708 690.500 Z M 417 692.500 C 417 692.775, 417.225 693, 417.500 693 C 417.775 693, 418 692.775, 418 692.500 C 418 692.225, 417.775 692, 417.500 692 C 417.225 692, 417 692.225, 417 692.500 Z M 707 692.500 C 707 692.775, 707.225 693, 707.500 693 C 707.775 693, 708 692.775, 708 692.500 C 708 692.225, 707.775 692, 707.500 692 C 707.225 692, 707 692.225, 707 692.500 Z M 706 694.500 C 706 694.775, 706.225 695, 706.500 695 C 706.775 695, 707 694.775, 707 694.500 C 707 694.225, 706.775 694, 706.500 694 C 706.225 694, 706 694.225, 706 694.500 Z M 705 696.500 C 705 696.775, 705.225 697, 705.500 697 C 705.775 697, 706 696.775, 706 696.500 C 706 696.225, 705.775 696, 705.500 696 C 705.225 696, 705 696.225, 705 696.500 Z M 704 698.500 C 704 698.775, 704.225 699, 704.500 699 C 704.775 699, 705 698.775, 705 698.500 C 705 698.225, 704.775 698, 704.500 698 C 704.225 698, 704 698.225, 704 698.500 Z M 703 700.500 C 703 700.775, 703.225 701, 703.500 701 C 703.775 701, 704 700.775, 704 700.500 C 704 700.225, 703.775 700, 703.500 700 C 703.225 700, 703 700.225, 703 700.500 Z M 423 703.500 C 423 703.775, 423.225 704, 423.500 704 C 423.775 704, 424 703.775, 424 703.500 C 424 703.225, 423.775 703, 423.500 703 C 423.225 703, 423 703.225, 423 703.500 Z M 700 705.500 C 700 705.775, 700.225 706, 700.500 706 C 700.775 706, 701 705.775, 701 705.500 C 701 705.225, 700.775 705, 700.500 705 C 700.225 705, 700 705.225, 700 705.500 Z M 425 706.500 C 425 706.775, 425.225 707, 425.500 707 C 425.775 707, 426 706.775, 426 706.500 C 426 706.225, 425.775 706, 425.500 706 C 425.225 706, 425 706.225, 425 706.500 Z M 426 708.500 C 426 708.775, 426.225 709, 426.500 709 C 426.775 709, 427 708.775, 427 708.500 C 427 708.225, 426.775 708, 426.500 708 C 426.225 708, 426 708.225, 426 708.500 Z M 421.872 715.750 C 420.629 717.336, 420.664 717.371, 422.250 716.128 C 423.212 715.373, 424 714.585, 424 714.378 C 424 713.555, 423.179 714.084, 421.872 715.750 Z M 692 717.500 C 692 717.775, 692.225 718, 692.500 718 C 692.775 718, 693 717.775, 693 717.500 C 693 717.225, 692.775 717, 692.500 717 C 692.225 717, 692 717.225, 692 717.500 Z M 688 722.500 C 688 722.775, 688.225 723, 688.500 723 C 688.775 723, 689 722.775, 689 722.500 C 689 722.225, 688.775 722, 688.500 722 C 688.225 722, 688 722.225, 688 722.500 Z M 683.405 728.155 C 682.962 728.870, 683.130 729.038, 683.845 728.595 C 684.998 727.883, 685.393 727, 684.559 727 C 684.316 727, 683.797 727.520, 683.405 728.155 Z M 405.405 731.250 L 403.500 733.500 405.750 731.595 C 407.864 729.805, 408.455 729, 407.655 729 C 407.465 729, 406.453 730.013, 405.405 731.250 Z M 669.405 742.250 L 667.500 744.500 669.750 742.595 C 671.864 740.805, 672.455 740, 671.655 740 C 671.465 740, 670.453 741.013, 669.405 742.250 Z M 387.405 748.155 C 386.962 748.870, 387.130 749.038, 387.845 748.595 C 388.998 747.883, 389.393 747, 388.559 747 C 388.316 747, 387.797 747.520, 387.405 748.155 Z M 663 747.500 C 663 747.775, 663.225 748, 663.500 748 C 663.775 748, 664 747.775, 664 747.500 C 664 747.225, 663.775 747, 663.500 747 C 663.225 747, 663 747.225, 663 747.500 Z M 655 753.500 C 655 753.775, 655.225 754, 655.500 754 C 655.775 754, 656 753.775, 656 753.500 C 656 753.225, 655.775 753, 655.500 753 C 655.225 753, 655 753.225, 655 753.500 Z M 652 755.500 C 652 755.775, 652.225 756, 652.500 756 C 652.775 756, 653 755.775, 653 755.500 C 653 755.225, 652.775 755, 652.500 755 C 652.225 755, 652 755.225, 652 755.500 Z M 649 757.500 C 649 757.775, 649.225 758, 649.500 758 C 649.775 758, 650 757.775, 650 757.500 C 650 757.225, 649.775 757, 649.500 757 C 649.225 757, 649 757.225, 649 757.500 Z M 374.405 760.250 L 372.500 762.500 374.750 760.595 C 376.864 758.805, 377.455 758, 376.655 758 C 376.465 758, 375.453 759.013, 374.405 760.250 Z M 479 760.500 C 479 760.775, 479.225 761, 479.500 761 C 479.775 761, 480 760.775, 480 760.500 C 480 760.225, 479.775 760, 479.500 760 C 479.225 760, 479 760.225, 479 760.500 Z M 644 760.500 C 644 760.775, 644.225 761, 644.500 761 C 644.775 761, 645 760.775, 645 760.500 C 645 760.225, 644.775 760, 644.500 760 C 644.225 760, 644 760.225, 644 760.500 Z M 488 765.500 C 488 765.775, 488.225 766, 488.500 766 C 488.775 766, 489 765.775, 489 765.500 C 489 765.225, 488.775 765, 488.500 765 C 488.225 765, 488 765.225, 488 765.500 Z M 635 765.500 C 635 765.775, 635.225 766, 635.500 766 C 635.775 766, 636 765.775, 636 765.500 C 636 765.225, 635.775 765, 635.500 765 C 635.225 765, 635 765.225, 635 765.500 Z M 469.405 768.250 L 467.500 770.500 469.750 768.595 C 470.988 767.547, 472 766.535, 472 766.345 C 472 765.545, 471.195 766.136, 469.405 768.250 Z M 490 766.500 C 490 766.775, 490.225 767, 490.500 767 C 490.775 767, 491 766.775, 491 766.500 C 491 766.225, 490.775 766, 490.500 766 C 490.225 766, 490 766.225, 490 766.500 Z M 495 768.500 C 495 768.775, 495.225 769, 495.500 769 C 495.775 769, 496 768.775, 496 768.500 C 496 768.225, 495.775 768, 495.500 768 C 495.225 768, 495 768.225, 495 768.500 Z M 628 768.500 C 628 768.775, 628.225 769, 628.500 769 C 628.775 769, 629 768.775, 629 768.500 C 629 768.225, 628.775 768, 628.500 768 C 628.225 768, 628 768.225, 628 768.500 Z M 497 769.500 C 497 769.775, 497.225 770, 497.500 770 C 497.775 770, 498 769.775, 498 769.500 C 498 769.225, 497.775 769, 497.500 769 C 497.225 769, 497 769.225, 497 769.500 Z M 626 769.500 C 626 769.775, 626.225 770, 626.500 770 C 626.775 770, 627 769.775, 627 769.500 C 627 769.225, 626.775 769, 626.500 769 C 626.225 769, 626 769.225, 626 769.500 Z M 623 770.500 C 623 770.775, 623.225 771, 623.500 771 C 623.775 771, 624 770.775, 624 770.500 C 624 770.225, 623.775 770, 623.500 770 C 623.225 770, 623 770.225, 623 770.500 Z M 502 771.500 C 502 771.775, 502.225 772, 502.500 772 C 502.775 772, 503 771.775, 503 771.500 C 503 771.225, 502.775 771, 502.500 771 C 502.225 771, 502 771.225, 502 771.500 Z M 621 771.500 C 621 771.775, 621.225 772, 621.500 772 C 621.775 772, 622 771.775, 622 771.500 C 622 771.225, 621.775 771, 621.500 771 C 621.225 771, 621 771.225, 621 771.500 Z M 358.872 774.750 C 357.629 776.336, 357.664 776.371, 359.250 775.128 C 360.916 773.821, 361.445 773, 360.622 773 C 360.415 773, 359.627 773.788, 358.872 774.750 Z M 507 773.500 C 507 773.775, 507.225 774, 507.500 774 C 507.775 774, 508 773.775, 508 773.500 C 508 773.225, 507.775 773, 507.500 773 C 507.225 773, 507 773.225, 507 773.500 Z M 510 774.500 C 510 774.775, 510.225 775, 510.500 775 C 510.775 775, 511 774.775, 511 774.500 C 511 774.225, 510.775 774, 510.500 774 C 510.225 774, 510 774.225, 510 774.500 Z M 612 774.500 C 612 774.775, 612.225 775, 612.500 775 C 612.775 775, 613 774.775, 613 774.500 C 613 774.225, 612.775 774, 612.500 774 C 612.225 774, 612 774.225, 612 774.500 Z M 609 775.500 C 609 775.775, 609.225 776, 609.500 776 C 609.775 776, 610 775.775, 610 775.500 C 610 775.225, 609.775 775, 609.500 775 C 609.225 775, 609 775.225, 609 775.500 Z M 517 776.500 C 517 776.775, 517.225 777, 517.500 777 C 517.775 777, 518 776.775, 518 776.500 C 518 776.225, 517.775 776, 517.500 776 C 517.225 776, 517 776.225, 517 776.500 Z M 520 777.500 C 520 777.775, 520.225 778, 520.500 778 C 520.775 778, 521 777.775, 521 777.500 C 521 777.225, 520.775 777, 520.500 777 C 520.225 777, 520 777.225, 520 777.500 Z M 602 777.500 C 602 777.775, 602.225 778, 602.500 778 C 602.775 778, 603 777.775, 603 777.500 C 603 777.225, 602.775 777, 602.500 777 C 602.225 777, 602 777.225, 602 777.500 Z M 524 778.500 C 524 778.775, 524.225 779, 524.500 779 C 524.775 779, 525 778.775, 525 778.500 C 525 778.225, 524.775 778, 524.500 778 C 524.225 778, 524 778.225, 524 778.500 Z M 598 778.500 C 598 778.775, 598.225 779, 598.500 779 C 598.775 779, 599 778.775, 599 778.500 C 599 778.225, 598.775 778, 598.500 778 C 598.225 778, 598 778.225, 598 778.500 Z M 529 779.500 C 529 779.775, 529.225 780, 529.500 780 C 529.775 780, 530 779.775, 530 779.500 C 530 779.225, 529.775 779, 529.500 779 C 529.225 779, 529 779.225, 529 779.500 Z M 593 779.500 C 593 779.775, 593.225 780, 593.500 780 C 593.775 780, 594 779.775, 594 779.500 C 594 779.225, 593.775 779, 593.500 779 C 593.225 779, 593 779.225, 593 779.500 Z M 534 780.500 C 534 780.775, 534.225 781, 534.500 781 C 534.775 781, 535 780.775, 535 780.500 C 535 780.225, 534.775 780, 534.500 780 C 534.225 780, 534 780.225, 534 780.500 Z M 588 780.500 C 588 780.775, 588.225 781, 588.500 781 C 588.775 781, 589 780.775, 589 780.500 C 589 780.225, 588.775 780, 588.500 780 C 588.225 780, 588 780.225, 588 780.500 Z M 541 781.500 C 541 781.775, 541.225 782, 541.500 782 C 541.775 782, 542 781.775, 542 781.500 C 542 781.225, 541.775 781, 541.500 781 C 541.225 781, 541 781.225, 541 781.500 Z M 580.333 781.667 C 580.700 782.033, 581.300 782.033, 581.667 781.667 C 582.033 781.300, 581.733 781, 581 781 C 580.267 781, 579.967 781.300, 580.333 781.667 Z M 554.269 782.693 C 555.242 782.947, 556.592 782.930, 557.269 782.656 C 557.946 782.382, 557.150 782.175, 555.500 782.195 C 553.850 782.215, 553.296 782.439, 554.269 782.693 Z M 566.750 782.662 C 567.438 782.940, 568.563 782.940, 569.250 782.662 C 569.938 782.385, 569.375 782.158, 568 782.158 C 566.625 782.158, 566.063 782.385, 566.750 782.662 Z M 450.405 786.155 C 449.962 786.870, 450.130 787.038, 450.845 786.595 C 451.998 785.883, 452.393 785, 451.559 785 C 451.316 785, 450.797 785.520, 450.405 786.155 Z M 344.872 787.750 C 343.629 789.336, 343.664 789.371, 345.250 788.128 C 346.916 786.821, 347.445 786, 346.622 786 C 346.415 786, 345.627 786.788, 344.872 787.750 Z M 333.405 798.155 C 332.962 798.870, 333.130 799.038, 333.845 798.595 C 334.998 797.883, 335.393 797, 334.559 797 C 334.316 797, 333.797 797.520, 333.405 798.155 Z M 331 798.500 C 331 798.775, 331.225 799, 331.500 799 C 331.775 799, 332 798.775, 332 798.500 C 332 798.225, 331.775 798, 331.500 798 C 331.225 798, 331 798.225, 331 798.500 Z M 433.872 801.750 C 432.629 803.336, 432.664 803.371, 434.250 802.128 C 435.916 800.821, 436.445 800, 435.622 800 C 435.415 800, 434.627 800.788, 433.872 801.750 Z M 420.405 814.250 L 418.500 816.500 420.750 814.595 C 422.864 812.805, 423.455 812, 422.655 812 C 422.465 812, 421.453 813.013, 420.405 814.250 Z M 405.924 827.750 L 403.500 830.500 406.250 828.076 C 408.820 825.810, 409.459 825, 408.674 825 C 408.495 825, 407.258 826.237, 405.924 827.750 Z M 393.405 839.155 C 392.962 839.870, 393.130 840.038, 393.845 839.595 C 394.998 838.883, 395.393 838, 394.559 838 C 394.316 838, 393.797 838.520, 393.405 839.155 Z M 379.872 851.750 C 378.629 853.336, 378.664 853.371, 380.250 852.128 C 381.916 850.821, 382.445 850, 381.622 850 C 381.415 850, 380.627 850.788, 379.872 851.750 Z M 368 862.500 C 368 862.775, 368.225 863, 368.500 863 C 368.775 863, 369 862.775, 369 862.500 C 369 862.225, 368.775 862, 368.500 862 C 368.225 862, 368 862.225, 368 862.500 Z M 309 867.378 C 309 867.585, 309.788 868.373, 310.750 869.128 C 312.336 870.371, 312.371 870.336, 311.128 868.750 C 309.821 867.084, 309 866.555, 309 867.378 Z M 358 871.500 C 358 871.775, 358.225 872, 358.500 872 C 358.775 872, 359 871.775, 359 871.500 C 359 871.225, 358.775 871, 358.500 871 C 358.225 871, 358 871.225, 358 871.500 Z M 352 875.500 C 352 875.775, 352.225 876, 352.500 876 C 352.775 876, 353 875.775, 353 875.500 C 353 875.225, 352.775 875, 352.500 875 C 352.225 875, 352 875.225, 352 875.500 Z M 350 876.500 C 350 876.775, 350.225 877, 350.500 877 C 350.775 877, 351 876.775, 351 876.500 C 351 876.225, 350.775 876, 350.500 876 C 350.225 876, 350 876.225, 350 876.500 Z M 344 878.500 C 344 878.775, 344.225 879, 344.500 879 C 344.775 879, 345 878.775, 345 878.500 C 345 878.225, 344.775 878, 344.500 878 C 344.225 878, 344 878.225, 344 878.500 Z M 333.813 879.683 C 334.534 879.972, 335.397 879.936, 335.729 879.604 C 336.061 879.272, 335.471 879.036, 334.417 879.079 C 333.252 879.127, 333.015 879.364, 333.813 879.683 Z M 337.333 879.667 C 337.700 880.033, 338.300 880.033, 338.667 879.667 C 339.033 879.300, 338.733 879, 338 879 C 337.267 879, 336.967 879.300, 337.333 879.667 Z" stroke="none" fill="#01b6af" fill-rule="evenodd"/></g></svg>